<svg xmlns="http://www.w3.org/2000/svg" xml:space="preserve" width="192" height="192" data-version="2">
    <path fill="#ff6cab" d="M135.58 42.49q0 5.86-2.23 14.4-2.24 8.55-5.86 18.64-3.62 10.08-7.62 20.56-4 10.47-7.62 20.25t-5.85 17.71q-2.24 7.93-2.24 12.7 0 7.24 4.78 7.24 4.62 0 11.24-4.24 6.62-4.23 14.09-11.39t14.71-16.33q7.23-9.16 13.16-19.01 5.93-9.86 9.47-19.49 3.55-9.62 3.55-17.63 0-5.39-1.47-9.7-1.46-4.31-6.08-4.31-2 0-3.16-.85-1.15-.85-1.15-1.62 0-1.54 2.62-1.54 1.84 0 4.69 1.31 2.85 1.31 5.7 4.01 2.85 2.69 4.85 6.85 2 4.16 2 9.86 0 7.08-3.77 16.4-3.77 9.31-10.16 19.25-6.39 9.93-14.48 19.4-8.08 9.47-16.86 17.09-8.78 7.63-17.17 12.17-8.4 4.54-15.48 4.54-6.01 0-8.01-3.69-2-3.7-2-9.7 0-9.4 3.16-20.49 3.15-11.08 7.85-23.02 4.7-11.93 9.4-23.79 4.69-11.86 7.85-22.79 3.16-10.94 3.16-20.18 0-10.47-5.93-14.17-5.93-3.69-15.48-3.69-9.39 0-19.94 3.54T64.66 30.79q-10.09 6.47-18.25 15.48-8.16 9.01-13.01 20.02t-4.85 23.64q0 7.39 2.54 13.78t8.24 10.32q5.7 3.92 14.94 3.92 6.93 0 13.32-2.92 6.39-2.93 11.32-7.93 4.92-5.01 7.85-11.17 2.93-6.16 2.93-12.63 0-5.23-2.16-9.16-2.16-3.93-7.24-3.93-2 0-4.16.62-2.15.62-2.92.62t-.77-.93q0-.31.31-.77.3-.46 1.07-.92 1.7-.93 4.16-1.47 2.47-.53 4.31-.53 6.78 0 10.48 4.77 3.69 4.77 3.69 11.55 0 7.39-3.85 14.32-3.85 6.93-10.24 12.48-6.39 5.54-14.32 8.77-7.93 3.24-16.25 3.24-10.32 0-17.48-5.08-7.16-5.09-10.78-13.33-3.62-8.23-3.62-17.63 0-12.16 4.86-23.18 4.85-11.01 13.32-20.02 8.47-9 19.25-15.63 10.78-6.62 22.71-10.24 11.94-3.62 23.79-3.62 8.94 0 16.1 2.93 7.16 2.93 11.39 9.32 4.24 6.39 4.24 17.01" paint-order="stroke"/>
</svg>
